{"accessors":[{"bufferView":2,"componentType":5126,"count":114,"max":[2.660222053527832,1.6602758169174194,1.833406925201416],"min":[-2.4349756240844727,-1.486757516860962,-1.8334074020385742],"type":"VEC3"},{"bufferView":2,"byteOffset":1368,"componentType":5126,"count":114,"max":[0.9908403158187866,0.9911332726478577,0.9975337386131287],"min":[-0.9997859597206116,-0.9922125935554504,-0.9975336790084839],"type":"VEC3"},{"bufferView":1,"componentType":5126,"count":114,"max":[0.7682316303253174,0.39569786190986633],"min":[0.0034204379189759493,0.0034204379189759493],"type":"VEC2"},{"bufferView":0,"componentType":5125,"count":576,"type":"SCALAR"},{"bufferView":2,"byteOffset":2736,"componentType":5126,"count":114,"max":[2.6899473667144775,1.690000295639038,1.863318920135498],"min":[-2.46496844291687,-1.516527771949768,-1.8633193969726562],"type":"VEC3"},{"bufferView":2,"byteOffset":4104,"componentType":5126,"count":114,"max":[0.9997629523277283,0.9923411011695862,0.9975192546844482],"min":[-0.990839958190918,-0.9911500215530396,-0.997519314289093],"type":"VEC3"},{"bufferView":1,"byteOffset":912,"componentType":5126,"count":114,"max":[0.7682316303253174,0.39569786190986633],"min":[0.0034204379189759493,0.0034204379189759493],"type":"VEC2"},{"bufferView":0,"byteOffset":2304,"componentType":5125,"count":576,"type":"SCALAR"},{"bufferView":2,"byteOffset":5472,"componentType":5126,"count":228,"max":[0.64946448802948,1.0272220373153687,2.980159282684326],"min":[-0.6494641304016113,-1.0272221565246582,-0.546174943447113],"type":"VEC3"},{"bufferView":2,"byteOffset":8208,"componentType":5126,"count":228,"max":[0.9921801686286926,0.9669609665870667,0.9950297474861145],"min":[-0.9921801686286926,-0.9669609665870667,-0.9950297474861145],"type":"VEC3"},{"bufferView":1,"byteOffset":1824,"componentType":5126,"count":228,"max":[0.39020776748657227,0.9472861886024475],"min":[0.0034204379189759493,0.4025387167930603],"type":"VEC2"},{"bufferView":0,"byteOffset":4608,"componentType":5125,"count":1152,"type":"SCALAR"},{"bufferView":2,"byteOffset":10944,"componentType":5126,"count":228,"max":[0.6792223453521729,1.0562525987625122,3.0100088119506836],"min":[-0.6792219877243042,-1.0562527179718018,-0.5760245323181152],"type":"VEC3"},{"bufferView":2,"byteOffset":13680,"componentType":5126,"count":228,"max":[0.9919284582138062,0.9676852226257324,0.9949869513511658],"min":[-0.9919284582138062,-0.9676852822303772,-0.9949870109558105],"type":"VEC3"},{"bufferView":1,"byteOffset":3648,"componentType":5126,"count":228,"max":[0.39020776748657227,0.9472861886024475],"min":[0.0034204379189759493,0.4025387167930603],"type":"VEC2"},{"bufferView":0,"byteOffset":9216,"componentType":5125,"count":1152,"type":"SCALAR"},{"bufferView":2,"byteOffset":16416,"componentType":5126,"count":228,"max":[0.792781412601471,1.7220954895019531,3.032885789871216],"min":[-1.0303213596343994,-1.6365456581115723,-0.7204529643058777],"type":"VEC3"},{"bufferView":2,"byteOffset":19152,"componentType":5126,"count":228,"max":[0.9991400241851807,0.9415077567100525,0.996414840221405],"min":[-0.9947880506515503,-0.9591633081436157,-0.9996225833892822],"type":"VEC3"},{"bufferView":1,"byteOffset":5472,"componentType":5126,"count":228,"max":[0.9965795278549194,0.8463632464408875],"min":[0.0034204379189759493,0.4025387167930603],"type":"VEC2"},{"bufferView":0,"byteOffset":13824,"componentType":5125,"count":1152,"type":"SCALAR"},{"bufferView":2,"byteOffset":21888,"componentType":5126,"count":228,"max":[0.8227562308311462,1.7453839778900146,3.0627641677856445],"min":[-1.0601625442504883,-1.6650712490081787,-0.7504410743713379],"type":"VEC3"},{"bufferView":2,"byteOffset":24624,"componentType":5126,"count":228,"max":[0.9947060942649841,0.9591633081436157,0.9996027946472168],"min":[-0.9991608262062073,-0.9424521923065186,-0.9964172840118408],"type":"VEC3"},{"bufferView":1,"byteOffset":7296,"componentType":5126,"count":228,"max":[0.9965795278549194,0.8463632464408875],"min":[0.0034204379189759493,0.4025387167930603],"type":"VEC2"},{"bufferView":0,"byteOffset":18432,"componentType":5125,"count":1152,"type":"SCALAR"},{"bufferView":2,"byteOffset":27360,"componentType":5126,"count":89,"max":[0.9195669889450073,0.656955361366272,0.7895078659057617],"min":[-0.652137041091919,-0.9250137209892273,-0.7895078659057617],"type":"VEC3"},{"bufferView":2,"byteOffset":28428,"componentType":5126,"count":89,"max":[0.6970910429954529,0.9995829463005066,0.9999997019767761],"min":[-0.9999996423721313,-0.7181496024131775,-0.9999997019767761],"type":"VEC3"},{"bufferView":1,"byteOffset":9120,"componentType":5126,"count":89,"max":[0.3526967763900757,0.9352501034736633],"min":[0.21769598126411438,0.7999624013900757],"type":"VEC2"},{"bufferView":0,"byteOffset":23040,"componentType":5125,"count":480,"type":"SCALAR"},{"bufferView":2,"byteOffset":29496,"componentType":5126,"count":73,"max":[0.9195669889450073,0.6869429349899292,0.8195078372955322],"min":[-0.6821370124816895,-0.9250137209892273,-0.8195078372955322],"type":"VEC3"},{"bufferView":2,"byteOffset":30372,"componentType":5126,"count":73,"max":[0.999999463558197,0.9871693253517151,1],"min":[-0.9914897680282593,-0.9995859861373901,-1],"type":"VEC3"},{"bufferView":1,"byteOffset":9832,"componentType":5126,"count":73,"max":[0.3526967763900757,0.9352501034736633],"min":[0.21769598126411438,0.7999624013900757],"type":"VEC2"},{"bufferView":0,"byteOffset":24960,"componentType":5125,"count":384,"type":"SCALAR"},{"bufferView":2,"byteOffset":31248,"componentType":5126,"count":114,"max":[0.7929160594940186,0.7672924995422363,0.7672921419143677],"min":[-0.7929151058197021,-0.7672919034957886,-0.7672921419143677],"type":"VEC3"},{"bufferView":2,"byteOffset":32616,"componentType":5126,"count":114,"max":[1,1,1],"min":[-1,-1,-1],"type":"VEC3"},{"bufferView":1,"byteOffset":10416,"componentType":5126,"count":114,"max":[0.9063421487808228,0.9451708793640137],"min":[0.11212881654500961,0.8456171154975891],"type":"VEC2"},{"bufferView":0,"byteOffset":26496,"componentType":5125,"count":576,"type":"SCALAR"},{"bufferView":2,"byteOffset":33984,"componentType":5126,"count":114,"max":[0.8229160308837891,0.7972924709320068,0.7972921133041382],"min":[-0.8229150772094727,-0.7972918748855591,-0.7972921133041382],"type":"VEC3"},{"bufferView":2,"byteOffset":35352,"componentType":5126,"count":114,"max":[1,1,1],"min":[-1,-1,-1],"type":"VEC3"},{"bufferView":1,"byteOffset":11328,"componentType":5126,"count":114,"max":[0.9063421487808228,0.9451708793640137],"min":[0.11212881654500961,0.8456171154975891],"type":"VEC2"},{"bufferView":0,"byteOffset":28800,"componentType":5125,"count":576,"type":"SCALAR"},{"bufferView":2,"byteOffset":36720,"componentType":5126,"count":89,"max":[1.2234894037246704,0.5393375158309937,1.2698613405227661],"min":[-1.2485262155532837,-0.5629303455352783,-1.2698613405227661],"type":"VEC3"},{"bufferView":2,"byteOffset":37788,"componentType":5126,"count":89,"max":[0.9978682398796082,0.9979535341262817,0.9999991655349731],"min":[-0.9980372190475464,-0.0652613639831543,-0.9999991655349731],"type":"VEC3"},{"bufferView":1,"byteOffset":12240,"componentType":5126,"count":89,"max":[0.9615018367767334,0.1896093338727951],"min":[0.775072455406189,0.0034204379189759493],"type":"VEC2"},{"bufferView":0,"byteOffset":31104,"componentType":5125,"count":480,"type":"SCALAR"},{"bufferView":2,"byteOffset":38856,"componentType":5126,"count":73,"max":[1.2534279823303223,0.5692760944366455,1.2998613119125366],"min":[-1.2784647941589355,-0.5629303455352783,-1.2998613119125366],"type":"VEC3"},{"bufferView":2,"byteOffset":39732,"componentType":5126,"count":73,"max":[0.9979535937309265,0.8910577297210693,1],"min":[-0.9979535937309265,-0.9979535937309265,-1],"type":"VEC3"},{"bufferView":1,"byteOffset":12952,"componentType":5126,"count":73,"max":[0.9615018367767334,0.1896093338727951],"min":[0.775072455406189,0.0034204379189759493],"type":"VEC2"},{"bufferView":0,"byteOffset":33024,"componentType":5125,"count":384,"type":"SCALAR"},{"bufferView":2,"byteOffset":40608,"componentType":5126,"count":114,"max":[1.6739736795425415,1.5222245454788208,1.66935396194458],"min":[-1.7013403177261353,-1.7820966243743896,-1.66935396194458],"type":"VEC3"},{"bufferView":2,"byteOffset":41976,"componentType":5126,"count":114,"max":[0.9723440408706665,0.9998459815979004,1],"min":[-1,-0.9899835586547852,-1],"type":"VEC3"},{"bufferView":1,"byteOffset":13536,"componentType":5126,"count":114,"max":[0.8694100379943848,0.8587587475776672],"min":[0.6130750775337219,0.38445159792900085],"type":"VEC2"},{"bufferView":0,"byteOffset":34560,"componentType":5125,"count":576,"type":"SCALAR"},{"bufferView":2,"byteOffset":43344,"componentType":5126,"count":114,"max":[1.7014933824539185,1.5522198677062988,1.6993539333343506],"min":[-1.7313402891159058,-1.8117973804473877,-1.6993539333343506],"type":"VEC3"},{"bufferView":2,"byteOffset":44712,"componentType":5126,"count":114,"max":[1,0.9900251030921936,0.9999999403953552],"min":[-0.9727252125740051,-0.9998449683189392,-0.9999999403953552],"type":"VEC3"},{"bufferView":1,"byteOffset":14448,"componentType":5126,"count":114,"max":[0.8694100379943848,0.8587587475776672],"min":[0.6130750775337219,0.38445159792900085],"type":"VEC2"},{"bufferView":0,"byteOffset":36864,"componentType":5125,"count":576,"type":"SCALAR"},{"bufferView":2,"byteOffset":46080,"componentType":5126,"count":988,"max":[1.3480112552642822,1.1647135019302368,4.280122756958008],"min":[-1.3597162961959839,-1.2750205993652344,-0.7362210750579834],"type":"VEC3"},{"bufferView":2,"byteOffset":57936,"componentType":5126,"count":988,"max":[0.9999819397926331,0.9817175269126892,0.9998943209648132],"min":[-0.9999797344207764,-0.9668824672698975,-0.999894380569458],"type":"VEC3"},{"bufferView":1,"byteOffset":15360,"componentType":5126,"count":988,"max":[0.9321501851081848,0.7931215167045593],"min":[0.21769598126411438,0.19645020365715027],"type":"VEC2"},{"bufferView":0,"byteOffset":39168,"componentType":5125,"count":5424,"type":"SCALAR"},{"bufferView":2,"byteOffset":69792,"componentType":5126,"count":988,"max":[1.378010630607605,1.1941859722137451,4.309999465942383],"min":[-1.3897156715393066,-1.3040568828582764,-0.766098141670227],"type":"VEC3"},{"bufferView":2,"byteOffset":81648,"componentType":5126,"count":988,"max":[0.9999775290489197,0.9678778648376465,0.9999178647994995],"min":[-0.9999775290489197,-0.9824145436286926,-0.9999178647994995],"type":"VEC3"},{"bufferView":1,"byteOffset":23264,"componentType":5126,"count":988,"max":[0.9321501851081848,0.7931215167045593],"min":[0.21769598126411438,0.19645020365715027],"type":"VEC2"},{"bufferView":0,"byteOffset":60864,"componentType":5125,"count":5424,"type":"SCALAR"},{"bufferView":2,"byteOffset":93504,"componentType":5126,"count":290,"max":[1.397233247756958,1.3428460359573364,1.7734588384628296],"min":[-1.3972331285476685,-1.342846155166626,-1.7734588384628296],"type":"VEC3"},{"bufferView":2,"byteOffset":96984,"componentType":5126,"count":290,"max":[0.9804908037185669,0.9899420738220215,1],"min":[-0.9804908037185669,-0.9899420738220215,-1],"type":"VEC3"},{"bufferView":1,"byteOffset":31168,"componentType":5126,"count":290,"max":[0.6062342524528503,0.8743594884872437],"min":[0.0034204379189759493,0.6289547085762024],"type":"VEC2"},{"bufferView":0,"byteOffset":82560,"componentType":5125,"count":1536,"type":"SCALAR"},{"bufferView":2,"byteOffset":100464,"componentType":5126,"count":290,"max":[1.4266407489776611,1.372549295425415,1.8034588098526],"min":[-1.4266406297683716,-1.3725494146347046,-1.8034588098526],"type":"VEC3"},{"bufferView":2,"byteOffset":103944,"componentType":5126,"count":290,"max":[0.9802502393722534,0.9901105165481567,1],"min":[-0.9802501797676086,-0.990110456943512,-1],"type":"VEC3"},{"bufferView":1,"byteOffset":33488,"componentType":5126,"count":290,"max":[0.6062342524528503,0.8743594884872437],"min":[0.0034204379189759493,0.6289547085762024],"type":"VEC2"},{"bufferView":0,"byteOffset":88704,"componentType":5125,"count":1536,"type":"SCALAR"},{"bufferView":2,"byteOffset":107424,"componentType":5126,"count":317,"max":[0.9374765157699585,0.6381797194480896,0.9171157479286194],"min":[-0.37545156478881836,-0.7711070775985718,-0.917411208152771],"type":"VEC3"},{"bufferView":2,"byteOffset":111228,"componentType":5126,"count":317,"max":[0.9973734617233276,0.9950052499771118,0.9903069734573364],"min":[-0.4072872996330261,-0.9906049370765686,-0.9872309565544128],"type":"VEC3"},{"bufferView":1,"byteOffset":35808,"componentType":5126,"count":317,"max":[0.5951282978057861,0.565153956413269],"min":[0.49026069045066833,0.460609495639801],"type":"VEC2"},{"bufferView":0,"byteOffset":94848,"componentType":5125,"count":1752,"type":"SCALAR"},{"bufferView":2,"byteOffset":115032,"componentType":5126,"count":279,"max":[0.9661452174186707,0.6578046083450317,0.9171157479286194],"min":[-0.37545156478881836,-0.7711070775985718,-0.917411208152771],"type":"VEC3"},{"bufferView":2,"byteOffset":118380,"componentType":5126,"count":279,"max":[0.7417536377906799,0.9913509488105774,0.9885457158088684],"min":[-0.9975940585136414,-0.9963999390602112,-0.9916397929191589],"type":"VEC3"},{"bufferView":1,"byteOffset":38344,"componentType":5126,"count":279,"max":[0.5951282978057861,0.565153956413269],"min":[0.49026069045066833,0.460609495639801],"type":"VEC2"},{"bufferView":0,"byteOffset":101856,"componentType":5125,"count":1536,"type":"SCALAR"},{"bufferView":2,"byteOffset":121728,"componentType":5126,"count":305,"max":[0.1977633535861969,0.1450389325618744,0.27208036184310913],"min":[-0.20680472254753113,-0.2707968056201935,-0.2720804810523987],"type":"VEC3"},{"bufferView":2,"byteOffset":125388,"componentType":5126,"count":305,"max":[0.9978547096252441,0.9984736442565918,0.998376727104187],"min":[-0.7015330791473389,-0.8870029449462891,-0.998376727104187],"type":"VEC3"},{"bufferView":1,"byteOffset":40576,"componentType":5126,"count":305,"max":[0.30017051100730896,0.6023186445236206],"min":[0.26853132247924805,0.5701446533203125],"type":"VEC2"},{"bufferView":0,"byteOffset":108000,"componentType":5125,"count":1728,"type":"SCALAR"},{"bufferView":2,"byteOffset":129048,"componentType":5126,"count":273,"max":[0.22767943143844604,0.1665382832288742,0.27208036184310913],"min":[-0.20680472254753113,-0.2707968056201935,-0.2720804810523987],"type":"VEC3"},{"bufferView":2,"byteOffset":132324,"componentType":5126,"count":273,"max":[0.8438935875892639,0.9984736442565918,0.9969446659088135],"min":[-0.9972029328346252,-0.9986029267311096,-0.9969446063041687],"type":"VEC3"},{"bufferView":1,"byteOffset":43016,"componentType":5126,"count":273,"max":[0.30017051100730896,0.6023186445236206],"min":[0.26853132247924805,0.5701446533203125],"type":"VEC2"},{"bufferView":0,"byteOffset":114912,"componentType":5125,"count":1536,"type":"SCALAR"},{"bufferView":2,"byteOffset":135600,"componentType":5126,"count":178,"max":[0.1322152018547058,0.15650661289691925,1.3543840646743774],"min":[-0.2082526683807373,-0.23386648297309875,-0.1964123249053955],"type":"VEC3"},{"bufferView":2,"byteOffset":137736,"componentType":5126,"count":178,"max":[0.9897744655609131,0.9883567690849304,0.9729158878326416],"min":[-0.713358998298645,-0.7512490749359131,-0.972915768623352],"type":"VEC3"},{"bufferView":1,"byteOffset":45200,"componentType":5126,"count":178,"max":[0.2616904675960541,0.6022515296936035],"min":[0.2293769270181656,0.5701446533203125],"type":"VEC2"},{"bufferView":0,"byteOffset":121056,"componentType":5125,"count":960,"type":"SCALAR"},{"bufferView":2,"byteOffset":139872,"componentType":5126,"count":146,"max":[0.16192424297332764,0.18607640266418457,1.3778257369995117],"min":[-0.2082526683807373,-0.23386648297309875,-0.219853937625885],"type":"VEC3"},{"bufferView":2,"byteOffset":141624,"componentType":5126,"count":146,"max":[0.9796913266181946,0.9530078768730164,0.975392758846283],"min":[-0.9903011322021484,-0.9856595993041992,-0.9753928780555725],"type":"VEC3"},{"bufferView":1,"byteOffset":46624,"componentType":5126,"count":146,"max":[0.2616904675960541,0.6022515296936035],"min":[0.2293769270181656,0.5701446533203125],"type":"VEC2"},{"bufferView":0,"byteOffset":124896,"componentType":5125,"count":768,"type":"SCALAR"},{"bufferView":2,"byteOffset":143376,"componentType":5126,"count":114,"max":[0.10497420281171799,0.22745834290981293,1.4792622327804565],"min":[-0.1539735049009323,-0.23074112832546234,-0.20950236916542053],"type":"VEC3"},{"bufferView":2,"byteOffset":144744,"componentType":5126,"count":114,"max":[0.9877299666404724,0.9915937781333923,0.9842690229415894],"min":[-0.20646052062511444,-0.928504228591919,-0.9842689633369446],"type":"VEC3"},{"bufferView":1,"byteOffset":47792,"componentType":5126,"count":114,"max":[0.3328429162502289,0.5968839526176453],"min":[0.30701136589050293,0.5701446533203125],"type":"VEC2"},{"bufferView":0,"byteOffset":127968,"componentType":5125,"count":576,"type":"SCALAR"}],"asset":{"extras":{"author":"Ivonne (https://sketchfab.com/Suada)","license":"CC-BY-4.0 (http://creativecommons.org/licenses/by/4.0/)","source":"https://sketchfab.com/3d-models/fidough-fanart-6067c9b24fa846b68b119ddc2a6303ea","title":"Fidough Fanart"},"generator":"Sketchfab-13.74.0","version":"2.0"},"bufferViews":[{"buffer":0,"byteLength":130272,"name":"floatBufferViews","target":34963},{"buffer":0,"byteLength":48704,"byteOffset":130272,"byteStride":8,"name":"floatBufferViews","target":34962},{"buffer":0,"byteLength":146112,"byteOffset":178976,"byteStride":12,"name":"floatBufferViews","target":34962}],"buffers":[{"byteLength":325088,"uri":"data:application/octet-stream;base64,"}],"images":[{"uri":"data:application/octet-stream;base64,"}],"materials":[{"doubleSided":true,"emissiveFactor":[1,1,1],"emissiveTexture":{"index":0},"name":"Fidough"},{"name":"Outline"}],"meshes":[{"name":"Object_0","primitives":[{"attributes":{"NORMAL":1,"POSITION":0,"TEXCOORD_0":2},"indices":3,"material":0,"mode":4}]},{"name":"Object_1","primitives":[{"attributes":{"NORMAL":5,"POSITION":4,"TEXCOORD_0":6},"indices":7,"material":1,"mode":4}]},{"name":"Object_2","primitives":[{"attributes":{"NORMAL":9,"POSITION":8,"TEXCOORD_0":10},"indices":11,"material":0,"mode":4}]},{"name":"Object_3","primitives":[{"attributes":{"NORMAL":13,"POSITION":12,"TEXCOORD_0":14},"indices":15,"material":1,"mode":4}]},{"name":"Object_4","primitives":[{"attributes":{"NORMAL":17,"POSITION":16,"TEXCOORD_0":18},"indices":19,"material":0,"mode":4}]},{"name":"Object_5","primitives":[{"attributes":{"NORMAL":21,"POSITION":20,"TEXCOORD_0":22},"indices":23,"material":1,"mode":4}]},{"name":"Object_6","primitives":[{"attributes":{"NORMAL":25,"POSITION":24,"TEXCOORD_0":26},"indices":27,"material":0,"mode":4}]},{"name":"Object_7","primitives":[{"attributes":{"NORMAL":29,"POSITION":28,"TEXCOORD_0":30},"indices":31,"material":1,"mode":4}]},{"name":"Object_8","primitives":[{"attributes":{"NORMAL":33,"POSITION":32,"TEXCOORD_0":34},"indices":35,"material":0,"mode":4}]},{"name":"Object_9","primitives":[{"attributes":{"NORMAL":37,"POSITION":36,"TEXCOORD_0":38},"indices":39,"material":1,"mode":4}]},{"name":"Object_10","primitives":[{"attributes":{"NORMAL":41,"POSITION":40,"TEXCOORD_0":42},"indices":43,"material":0,"mode":4}]},{"name":"Object_11","primitives":[{"attributes":{"NORMAL":45,"POSITION":44,"TEXCOORD_0":46},"indices":47,"material":1,"mode":4}]},{"name":"Object_12","primitives":[{"attributes":{"NORMAL":49,"POSITION":48,"TEXCOORD_0":50},"indices":51,"material":0,"mode":4}]},{"name":"Object_13","primitives":[{"attributes":{"NORMAL":53,"POSITION":52,"TEXCOORD_0":54},"indices":55,"material":1,"mode":4}]},{"name":"Object_14","primitives":[{"attributes":{"NORMAL":57,"POSITION":56,"TEXCOORD_0":58},"indices":59,"material":0,"mode":4}]},{"name":"Object_15","primitives":[{"attributes":{"NORMAL":61,"POSITION":60,"TEXCOORD_0":62},"indices":63,"material":1,"mode":4}]},{"name":"Object_16","primitives":[{"attributes":{"NORMAL":65,"POSITION":64,"TEXCOORD_0":66},"indices":67,"material":0,"mode":4}]},{"name":"Object_17","primitives":[{"attributes":{"NORMAL":69,"POSITION":68,"TEXCOORD_0":70},"indices":71,"material":1,"mode":4}]},{"name":"Object_18","primitives":[{"attributes":{"NORMAL":73,"POSITION":72,"TEXCOORD_0":74},"indices":75,"material":0,"mode":4}]},{"name":"Object_19","primitives":[{"attributes":{"NORMAL":77,"POSITION":76,"TEXCOORD_0":78},"indices":79,"material":1,"mode":4}]},{"name":"Object_20","primitives":[{"attributes":{"NORMAL":81,"POSITION":80,"TEXCOORD_0":82},"indices":83,"material":0,"mode":4}]},{"name":"Object_21","primitives":[{"attributes":{"NORMAL":85,"POSITION":84,"TEXCOORD_0":86},"indices":87,"material":1,"mode":4}]},{"name":"Object_22","primitives":[{"attributes":{"NORMAL":89,"POSITION":88,"TEXCOORD_0":90},"indices":91,"material":0,"mode":4}]},{"name":"Object_23","primitives":[{"attributes":{"NORMAL":93,"POSITION":92,"TEXCOORD_0":94},"indices":95,"material":1,"mode":4}]},{"name":"Object_24","primitives":[{"attributes":{"NORMAL":97,"POSITION":96,"TEXCOORD_0":98},"indices":99,"material":0,"mode":4}]}],"nodes":[{"children":[1],"matrix":[1,0,0,0,0,2.220446049250313e-16,-1,0,0,1,2.220446049250313e-16,0,0,0,0,1],"name":"Sketchfab_model"},{"children":[2],"name":"root"},{"children":[3,6,9,12,15,18,21,24,27,30,33,36,39],"matrix":[1,0,0,0,0,2.220446049250313e-16,1,0,0,-1,2.220446049250313e-16,0,0,0,0,1],"name":"GLTF_SceneRootNode"},{"children":[4,5],"matrix":[1,0,0,0,0,1,0,0,0,0,1,0,-0.08282360434532166,0.0018683100352063775,0,1],"name":"Body_0"},{"mesh":0,"name":"Object_4"},{"mesh":1,"name":"Object_5"},{"children":[7,8],"matrix":[1.1007544994354248,0,0,0,0,1.1007544994354248,0,0,0,0,1.1007544994354248,0,1.5352205038070679,-1.0315583944320679,-1.3396095037460327,1],"name":"FrontLegs_1"},{"mesh":2,"name":"Object_7"},{"mesh":3,"name":"Object_8"},{"children":[10,11],"matrix":[1,0,0,0,0,0.9983624469021464,-0.05720511004760789,0,0,0.05720511004760789,0.9983624469021464,0,-1.207965612411499,-0.6920475959777832,-1.1306061744689941,1],"name":"BackLegs_2"},{"mesh":4,"name":"Object_10"},{"mesh":5,"name":"Object_11"},{"children":[13,14],"matrix":[1,0,0,0,0,1,0,0,0,0,1,0,-2.2337493896484375,1.3158683776855469,0.027007102966308594,1],"name":"TailLower_3"},{"mesh":6,"name":"Object_13"},{"mesh":7,"name":"Object_14"},{"children":[16,17],"matrix":[1,0,0,0,0,1,0,0,0,0,1,0,-2.7600553035736084,2.2220942974090576,0.027007173746824265,1],"name":"TailUpper_4"},{"mesh":8,"name":"Object_16"},{"mesh":9,"name":"Object_17"},{"children":[19,20],"matrix":[0.9706714749336243,0,0,0,0,0.9706714749336243,0,0,0,0,0.9706714749336243,0,-0.3412157893180847,1.6355359554290771,0.027006981894373894,1],"name":"BackBun_5"},{"mesh":10,"name":"Object_19"},{"mesh":11,"name":"Object_20"},{"children":[22,23],"matrix":[1,0,0,0,0,1,0,0,0,0,1.0886434316635132,0,2.409513473510742,1.5089800357818604,0,1],"name":"Head_6"},{"mesh":12,"name":"Object_22"},{"mesh":13,"name":"Object_23"},{"children":[25,26],"matrix":[1,0,0,0,0,1,0,0,0,0,1,0,2.409715414047241,1.852150797843933,-1.7719507217407227,1],"name":"Ears_7"},{"mesh":14,"name":"Object_25"},{"mesh":15,"name":"Object_26"},{"children":[28,29],"matrix":[1.084140939802783,-0.15453889658437003,0,0,0.15453889658437003,1.084140939802783,0,0,0,0,1.095099925994873,0,1.8097233772277832,0.4079933762550354,0,1],"name":"Neckbun_8"},{"mesh":16,"name":"Object_28"},{"mesh":17,"name":"Object_29"},{"children":[31,32],"matrix":[0.6530818343162537,0,0,0,0,1.085744857788086,0,0,0,0,1.085744857788086,0,4.05490255355835,1.0500564575195312,0,1],"name":"Snout_10"},{"mesh":18,"name":"Object_31"},{"mesh":19,"name":"Object_32"},{"children":[34,35],"matrix":[0.9900959930341043,0.14039203886905682,0,0,-0.14039203886905682,0.9900959930341043,0,0,0,0,1,0,4.495923042297363,1.4948279857635498,0.045300863683223724,1],"name":"Nose_11"},{"mesh":20,"name":"Object_34"},{"mesh":21,"name":"Object_35"},{"children":[37,38],"matrix":[1,0,0,0,0,1,0,0,0,0,1,0,3.5669782161712646,2.37100887298584,-0.5789858102798462,1],"name":"Eyebrows_12"},{"mesh":22,"name":"Object_37"},{"mesh":23,"name":"Object_38"},{"children":[40],"matrix":[1.4273260831832886,0,0,0,0,1.0743494033813477,0,0,0,0,1.189225673675537,0,3.8588244915008545,1.789982557296753,-0.75501549243927,1],"name":"Eyes_13"},{"mesh":24,"name":"Object_40"}],"samplers":[{"magFilter":9729,"minFilter":9729,"wrapS":10497,"wrapT":10497}],"scene":0,"scenes":[{"name":"Sketchfab_Scene","nodes":[0]}],"textures":[{"sampler":0,"source":0}]}